<mxfile host="app.diagrams.net" modified="2023-11-10T20:59:46.912Z" agent="Mozilla/5.0 (Macintosh; Intel Mac OS X 10_15_7) AppleWebKit/537.36 (KHTML, like Gecko) Chrome/119.0.0.0 Safari/537.36" etag="dT0zwCPs71IXMUSkBIpn" version="22.1.0" type="device" pages="2">
  <diagram name="Page-1" id="Vwe-SFNriDMvAdaZTkJu">
    <mxGraphModel dx="4586" dy="2974" grid="0" gridSize="10" guides="1" tooltips="1" connect="1" arrows="1" fold="1" page="0" pageScale="1" pageWidth="850" pageHeight="1100" math="0" shadow="0">
      <root>
        <mxCell id="0" />
        <mxCell id="1" parent="0" />
        <mxCell id="76d5a47C9K45hAPCI4LW-1" value="&lt;span style=&quot;white-space: pre;&quot;&gt;&#x9;&lt;/span&gt;Logo &lt;span style=&quot;white-space: pre;&quot;&gt;&#x9;&lt;/span&gt;&lt;span style=&quot;white-space: pre;&quot;&gt;&#x9;&lt;span style=&quot;white-space: pre;&quot;&gt;&#x9;&lt;/span&gt;&lt;/span&gt;Home &lt;span style=&quot;white-space: pre;&quot;&gt;&#x9;&lt;span style=&quot;white-space: pre;&quot;&gt;&#x9;&lt;span style=&quot;white-space: pre;&quot;&gt;&#x9;&lt;/span&gt;&lt;/span&gt;&lt;/span&gt;Shop &lt;span style=&quot;white-space: pre;&quot;&gt;&#x9;&lt;span style=&quot;white-space: pre;&quot;&gt;&#x9;&lt;span style=&quot;white-space: pre;&quot;&gt;&#x9;&lt;/span&gt;&lt;/span&gt;&lt;/span&gt;About &lt;span style=&quot;white-space: pre;&quot;&gt;&#x9;&lt;span style=&quot;white-space: pre;&quot;&gt;&#x9;&lt;span style=&quot;white-space: pre;&quot;&gt;&#x9;&lt;/span&gt;&lt;/span&gt;&lt;/span&gt;Us &lt;span style=&quot;white-space: pre;&quot;&gt;&#x9;&lt;span style=&quot;white-space: pre;&quot;&gt;&#x9;&lt;span style=&quot;white-space: pre;&quot;&gt;&#x9;&lt;/span&gt;&lt;/span&gt;&lt;/span&gt;Products &lt;span style=&quot;white-space: pre;&quot;&gt;&#x9;&lt;span style=&quot;white-space: pre;&quot;&gt;&#x9;&lt;/span&gt;&lt;/span&gt;Contact Us" style="rounded=0;whiteSpace=wrap;html=1;fontSize=16;align=left;" parent="1" vertex="1">
          <mxGeometry x="-1306" y="-1349" width="954" height="60" as="geometry" />
        </mxCell>
        <mxCell id="76d5a47C9K45hAPCI4LW-3" value="&lt;span style=&quot;white-space: pre;&quot;&gt;&#x9;&lt;/span&gt;&lt;span style=&quot;white-space: pre;&quot;&gt;&#x9;&lt;/span&gt;&lt;span style=&quot;white-space: pre;&quot;&gt;&#x9;&lt;/span&gt;&amp;nbsp;" style="rounded=0;whiteSpace=wrap;html=1;fontSize=16;align=left;" parent="1" vertex="1">
          <mxGeometry x="-1306" y="-1202" width="954" height="152" as="geometry" />
        </mxCell>
        <mxCell id="76d5a47C9K45hAPCI4LW-73" value="Add Item" style="rounded=1;whiteSpace=wrap;html=1;fontSize=16;" parent="1" vertex="1">
          <mxGeometry x="-1182" y="-1094" width="92" height="34" as="geometry" />
        </mxCell>
        <mxCell id="76d5a47C9K45hAPCI4LW-83" value="" style="rounded=0;whiteSpace=wrap;html=1;fontSize=16;align=left;" parent="1" vertex="1">
          <mxGeometry x="-1306" y="-1281" width="954" height="79" as="geometry" />
        </mxCell>
        <mxCell id="76d5a47C9K45hAPCI4LW-84" value="" style="endArrow=none;html=1;rounded=0;fontSize=12;startSize=8;endSize=8;curved=1;entryX=1;entryY=0;entryDx=0;entryDy=0;" parent="1" target="76d5a47C9K45hAPCI4LW-83" edge="1">
          <mxGeometry width="50" height="50" relative="1" as="geometry">
            <mxPoint x="-1305" y="-1202" as="sourcePoint" />
            <mxPoint x="-1255" y="-1252" as="targetPoint" />
          </mxGeometry>
        </mxCell>
        <mxCell id="76d5a47C9K45hAPCI4LW-90" value="" style="endArrow=none;html=1;rounded=0;fontSize=12;startSize=8;endSize=8;curved=1;entryX=0.005;entryY=0.038;entryDx=0;entryDy=0;entryPerimeter=0;" parent="1" target="76d5a47C9K45hAPCI4LW-83" edge="1">
          <mxGeometry width="50" height="50" relative="1" as="geometry">
            <mxPoint x="-353" y="-1202" as="sourcePoint" />
            <mxPoint x="-303" y="-1252" as="targetPoint" />
          </mxGeometry>
        </mxCell>
        <mxCell id="76d5a47C9K45hAPCI4LW-94" value="Gold Group" style="rounded=1;whiteSpace=wrap;html=1;fontSize=16;" parent="1" vertex="1">
          <mxGeometry x="-891" y="-1256" width="120" height="33" as="geometry" />
        </mxCell>
        <mxCell id="0U13Z030iqKUWzm4eBFs-4" value="Image" style="rounded=1;whiteSpace=wrap;html=1;" parent="1" vertex="1">
          <mxGeometry x="-1182" y="-1194.5" width="92" height="97" as="geometry" />
        </mxCell>
        <mxCell id="0U13Z030iqKUWzm4eBFs-9" value="Image" style="rounded=1;whiteSpace=wrap;html=1;" parent="1" vertex="1">
          <mxGeometry x="-876" y="-1194.5" width="92" height="97" as="geometry" />
        </mxCell>
        <mxCell id="0U13Z030iqKUWzm4eBFs-10" value="Add Item" style="rounded=1;whiteSpace=wrap;html=1;fontSize=16;" parent="1" vertex="1">
          <mxGeometry x="-876" y="-1094" width="92" height="34" as="geometry" />
        </mxCell>
        <mxCell id="0U13Z030iqKUWzm4eBFs-11" value="Image" style="rounded=1;whiteSpace=wrap;html=1;" parent="1" vertex="1">
          <mxGeometry x="-568" y="-1194.5" width="92" height="97" as="geometry" />
        </mxCell>
        <mxCell id="0U13Z030iqKUWzm4eBFs-12" value="Add Item" style="rounded=1;whiteSpace=wrap;html=1;fontSize=16;" parent="1" vertex="1">
          <mxGeometry x="-568" y="-1094" width="92" height="34" as="geometry" />
        </mxCell>
        <mxCell id="0U13Z030iqKUWzm4eBFs-13" value="&lt;span style=&quot;white-space: pre;&quot;&gt;&#x9;&lt;/span&gt;&lt;span style=&quot;white-space: pre;&quot;&gt;&#x9;&lt;/span&gt;&lt;span style=&quot;white-space: pre;&quot;&gt;&#x9;&lt;/span&gt;&amp;nbsp;" style="rounded=0;whiteSpace=wrap;html=1;fontSize=16;align=left;" parent="1" vertex="1">
          <mxGeometry x="-1306" y="-963" width="954" height="152" as="geometry" />
        </mxCell>
        <mxCell id="0U13Z030iqKUWzm4eBFs-14" value="Add Item" style="rounded=1;whiteSpace=wrap;html=1;fontSize=16;" parent="1" vertex="1">
          <mxGeometry x="-1182" y="-855" width="92" height="34" as="geometry" />
        </mxCell>
        <mxCell id="0U13Z030iqKUWzm4eBFs-15" value="" style="rounded=0;whiteSpace=wrap;html=1;fontSize=16;align=left;" parent="1" vertex="1">
          <mxGeometry x="-1306" y="-1042" width="954" height="79" as="geometry" />
        </mxCell>
        <mxCell id="0U13Z030iqKUWzm4eBFs-16" value="" style="endArrow=none;html=1;rounded=0;fontSize=12;startSize=8;endSize=8;curved=1;entryX=1;entryY=0;entryDx=0;entryDy=0;" parent="1" target="0U13Z030iqKUWzm4eBFs-15" edge="1">
          <mxGeometry width="50" height="50" relative="1" as="geometry">
            <mxPoint x="-1305" y="-963" as="sourcePoint" />
            <mxPoint x="-1255" y="-1013" as="targetPoint" />
          </mxGeometry>
        </mxCell>
        <mxCell id="0U13Z030iqKUWzm4eBFs-17" value="" style="endArrow=none;html=1;rounded=0;fontSize=12;startSize=8;endSize=8;curved=1;entryX=0.005;entryY=0.038;entryDx=0;entryDy=0;entryPerimeter=0;" parent="1" target="0U13Z030iqKUWzm4eBFs-15" edge="1">
          <mxGeometry width="50" height="50" relative="1" as="geometry">
            <mxPoint x="-353" y="-963" as="sourcePoint" />
            <mxPoint x="-303" y="-1013" as="targetPoint" />
          </mxGeometry>
        </mxCell>
        <mxCell id="0U13Z030iqKUWzm4eBFs-18" value="Silver Group" style="rounded=1;whiteSpace=wrap;html=1;fontSize=16;" parent="1" vertex="1">
          <mxGeometry x="-891" y="-1017" width="120" height="33" as="geometry" />
        </mxCell>
        <mxCell id="0U13Z030iqKUWzm4eBFs-19" value="Image" style="rounded=1;whiteSpace=wrap;html=1;" parent="1" vertex="1">
          <mxGeometry x="-1182" y="-955.5" width="92" height="97" as="geometry" />
        </mxCell>
        <mxCell id="0U13Z030iqKUWzm4eBFs-20" value="Image" style="rounded=1;whiteSpace=wrap;html=1;" parent="1" vertex="1">
          <mxGeometry x="-876" y="-955.5" width="92" height="97" as="geometry" />
        </mxCell>
        <mxCell id="0U13Z030iqKUWzm4eBFs-21" value="Add Item" style="rounded=1;whiteSpace=wrap;html=1;fontSize=16;" parent="1" vertex="1">
          <mxGeometry x="-876" y="-855" width="92" height="34" as="geometry" />
        </mxCell>
        <mxCell id="0U13Z030iqKUWzm4eBFs-22" value="Image" style="rounded=1;whiteSpace=wrap;html=1;" parent="1" vertex="1">
          <mxGeometry x="-568" y="-955.5" width="92" height="97" as="geometry" />
        </mxCell>
        <mxCell id="0U13Z030iqKUWzm4eBFs-23" value="Add Item" style="rounded=1;whiteSpace=wrap;html=1;fontSize=16;" parent="1" vertex="1">
          <mxGeometry x="-568" y="-855" width="92" height="34" as="geometry" />
        </mxCell>
        <mxCell id="0U13Z030iqKUWzm4eBFs-24" value="&lt;span style=&quot;white-space: pre;&quot;&gt;&#x9;&lt;/span&gt;&lt;span style=&quot;white-space: pre;&quot;&gt;&#x9;&lt;/span&gt;&lt;span style=&quot;white-space: pre;&quot;&gt;&#x9;&lt;/span&gt;&amp;nbsp;" style="rounded=0;whiteSpace=wrap;html=1;fontSize=16;align=left;" parent="1" vertex="1">
          <mxGeometry x="-1306" y="-725" width="954" height="152" as="geometry" />
        </mxCell>
        <mxCell id="0U13Z030iqKUWzm4eBFs-25" value="Add Item" style="rounded=1;whiteSpace=wrap;html=1;fontSize=16;" parent="1" vertex="1">
          <mxGeometry x="-1182" y="-617" width="92" height="34" as="geometry" />
        </mxCell>
        <mxCell id="0U13Z030iqKUWzm4eBFs-26" value="" style="rounded=0;whiteSpace=wrap;html=1;fontSize=16;align=left;" parent="1" vertex="1">
          <mxGeometry x="-1306" y="-804" width="954" height="79" as="geometry" />
        </mxCell>
        <mxCell id="0U13Z030iqKUWzm4eBFs-27" value="" style="endArrow=none;html=1;rounded=0;fontSize=12;startSize=8;endSize=8;curved=1;entryX=1;entryY=0;entryDx=0;entryDy=0;" parent="1" target="0U13Z030iqKUWzm4eBFs-26" edge="1">
          <mxGeometry width="50" height="50" relative="1" as="geometry">
            <mxPoint x="-1305" y="-725" as="sourcePoint" />
            <mxPoint x="-1255" y="-775" as="targetPoint" />
          </mxGeometry>
        </mxCell>
        <mxCell id="0U13Z030iqKUWzm4eBFs-28" value="" style="endArrow=none;html=1;rounded=0;fontSize=12;startSize=8;endSize=8;curved=1;entryX=0.005;entryY=0.038;entryDx=0;entryDy=0;entryPerimeter=0;" parent="1" target="0U13Z030iqKUWzm4eBFs-26" edge="1">
          <mxGeometry width="50" height="50" relative="1" as="geometry">
            <mxPoint x="-353" y="-725" as="sourcePoint" />
            <mxPoint x="-303" y="-775" as="targetPoint" />
          </mxGeometry>
        </mxCell>
        <mxCell id="0U13Z030iqKUWzm4eBFs-29" value="Bronze Group" style="rounded=1;whiteSpace=wrap;html=1;fontSize=16;" parent="1" vertex="1">
          <mxGeometry x="-891" y="-779" width="120" height="33" as="geometry" />
        </mxCell>
        <mxCell id="0U13Z030iqKUWzm4eBFs-30" value="Image" style="rounded=1;whiteSpace=wrap;html=1;" parent="1" vertex="1">
          <mxGeometry x="-1182" y="-717.5" width="92" height="97" as="geometry" />
        </mxCell>
        <mxCell id="0U13Z030iqKUWzm4eBFs-31" value="Image" style="rounded=1;whiteSpace=wrap;html=1;" parent="1" vertex="1">
          <mxGeometry x="-876" y="-717.5" width="92" height="97" as="geometry" />
        </mxCell>
        <mxCell id="0U13Z030iqKUWzm4eBFs-32" value="Add Item" style="rounded=1;whiteSpace=wrap;html=1;fontSize=16;" parent="1" vertex="1">
          <mxGeometry x="-876" y="-617" width="92" height="34" as="geometry" />
        </mxCell>
        <mxCell id="0U13Z030iqKUWzm4eBFs-33" value="Image" style="rounded=1;whiteSpace=wrap;html=1;" parent="1" vertex="1">
          <mxGeometry x="-568" y="-717.5" width="92" height="97" as="geometry" />
        </mxCell>
        <mxCell id="0U13Z030iqKUWzm4eBFs-34" value="Add Item" style="rounded=1;whiteSpace=wrap;html=1;fontSize=16;" parent="1" vertex="1">
          <mxGeometry x="-568" y="-617" width="92" height="34" as="geometry" />
        </mxCell>
        <mxCell id="0U13Z030iqKUWzm4eBFs-36" value="&lt;span style=&quot;white-space: pre;&quot;&gt;&#x9;&lt;/span&gt;Logo &lt;span style=&quot;white-space: pre;&quot;&gt;&#x9;&lt;/span&gt;&lt;span style=&quot;white-space: pre;&quot;&gt;&#x9;&lt;/span&gt;Home &lt;span style=&quot;white-space: pre;&quot;&gt;&#x9;&lt;span style=&quot;white-space: pre;&quot;&gt;&#x9;&lt;/span&gt;&lt;/span&gt;Shop &lt;span style=&quot;white-space: pre;&quot;&gt;&#x9;&lt;span style=&quot;white-space: pre;&quot;&gt;&#x9;&lt;/span&gt;&lt;/span&gt;About &lt;span style=&quot;white-space: pre;&quot;&gt;&#x9;&lt;span style=&quot;white-space: pre;&quot;&gt;&#x9;&lt;/span&gt;&lt;/span&gt;Us &lt;span style=&quot;white-space: pre;&quot;&gt;&#x9;&lt;span style=&quot;white-space: pre;&quot;&gt;&#x9;&lt;/span&gt;&lt;/span&gt;Products &lt;span style=&quot;white-space: pre;&quot;&gt;&#x9;&lt;span style=&quot;white-space: pre;&quot;&gt;&#x9;&lt;/span&gt;&lt;/span&gt;Contact Us" style="rounded=0;whiteSpace=wrap;html=1;fontSize=16;align=left;" parent="1" vertex="1">
          <mxGeometry x="-1306" y="-565" width="954" height="60" as="geometry" />
        </mxCell>
        <mxCell id="0U13Z030iqKUWzm4eBFs-37" value="Cart" style="ellipse;whiteSpace=wrap;html=1;aspect=fixed;" parent="1" vertex="1">
          <mxGeometry x="-438" y="-561" width="52" height="52" as="geometry" />
        </mxCell>
        <mxCell id="0U13Z030iqKUWzm4eBFs-38" value="&lt;font style=&quot;font-size: 25px;&quot;&gt;&lt;b&gt;&lt;span style=&quot;white-space: pre;&quot;&gt;&#x9;&lt;/span&gt;Checkout&amp;nbsp;Page&lt;/b&gt;&lt;/font&gt;" style="text;html=1;align=center;verticalAlign=middle;resizable=0;points=[];autosize=1;strokeColor=none;fillColor=none;" parent="1" vertex="1">
          <mxGeometry x="-1620" y="-1358" width="254" height="42" as="geometry" />
        </mxCell>
      </root>
    </mxGraphModel>
  </diagram>
  <diagram id="RqJzGAvNc312FYMicDzJ" name="Page-2">
    <mxGraphModel dx="1063" dy="522" grid="0" gridSize="10" guides="1" tooltips="1" connect="1" arrows="1" fold="1" page="0" pageScale="1" pageWidth="850" pageHeight="1100" math="0" shadow="0">
      <root>
        <mxCell id="0" />
        <mxCell id="1" parent="0" />
      </root>
    </mxGraphModel>
  </diagram>
</mxfile>
